<svg width="53" height="64" viewBox="0 0 53 64" fill="none" xmlns="http://www.w3.org/2000/svg">
<path d="M53 5.5C53 2.73858 50.7614 0.5 48 0.5H9.32158L0 63.5H48C50.7614 63.5 53 61.2614 53 58.5V5.5Z" fill="#26EFA4"/>
<g clip-path="url(#clip0_98_171)">
<path d="M30 23C24.48 23 20 27.48 20 33C20 38.52 24.48 43 30 43C35.52 43 40 38.52 40 33C40 27.48 35.52 23 30 23ZM30 41C25.59 41 22 37.41 22 33C22 28.59 25.59 25 30 25C34.41 25 38 28.59 38 33C38 37.41 34.41 41 30 41ZM33.88 29.29L28 35.17L26.12 33.29C25.73 32.9 25.1 32.9 24.71 33.29C24.32 33.68 24.32 34.31 24.71 34.7L27.3 37.29C27.69 37.68 28.32 37.68 28.71 37.29L35.3 30.7C35.69 30.31 35.69 29.68 35.3 29.29C34.91 28.9 34.27 28.9 33.88 29.29Z" fill="#312946"/>
</g>
<defs>
<clipPath id="clip0_98_171">
<rect width="24" height="24" fill="white" transform="translate(18 21)"/>
</clipPath>
</defs>
</svg>
